<svg width="14" height="14" viewBox="0 0 14 14" fill="none" xmlns="http://www.w3.org/2000/svg" class="h-6 w-6"><path fill-rule="evenodd" clip-rule="evenodd" d="M4.2 4.2v-2.8c0-0.77 0.63-1.4 1.4-1.4h7c0.773 0 1.4 0.627 1.4 1.4v0 7c0 0.773-0.627 1.4-1.4 1.4v0h-2.8v2.8c0 0.773-0.627 1.4-1.4 1.4v0h-7c-0.773 0-1.4-0.627-1.4-1.4v0-7c0-0.77 0.63-1.4 1.4-1.4h2.8zM5.6 4.2h2.8c0.773 0 1.4 0.627 1.4 1.4v0 2.8h2.8v-7h-7v2.8zM1.4 5.6v7h7v-7h-7z" stroke-width="2" stroke-miterlimit="10" fill="currentColor"/></svg>